<!--?xml version="1.0" standalone="no"?--><svg xmlns="http://www.w3.org/2000/svg" width="300.000000pt" height="300.000000pt" viewBox="0 0 300.000000 300.000000" preserveAspectRatio="xMidYMid meet">
<metadata>
  <rdf:rdf xmlns:rdf="http://www.w3.org/1999/02/22-rdf-syntax-ns#" xmlns:rdfs="http://www.w3.org/2000/01/rdf-schema#" xmlns:dc="http://purl.org/dc/elements/1.1/">
    <rdf:description dc:title="Education - teaching" dc:publisher="Hiox" dc:date="2015-03-14" dc:format="image/svg+xml" dc:language="en">
      <dc:creator>
        <rdf:bag>
          <rdf:li>svgimages.com</rdf:li>
        </rdf:bag>
      </dc:creator>
    </rdf:description>
  </rdf:rdf>
</metadata>
<g transform="translate(0.000000,300.000000) scale(0.100000,-0.100000)" fill="#070707" stroke="none">
<path style="position: relative;" d="M1051 2974 c-15 -20 -21 -41 -21 -80 l0 -54 -363 0 c-340 0 -365 -1
-380 -18 -16 -17 -17 -83 -17 -750 0 -651 2 -732 16 -746 14 -14 113 -16 944
-16 909 0 930 0 940 19 5 11 10 82 10 159 l0 140 -32 11 c-18 6 -42 21 -55 33
l-23 21 0 -136 0 -137 -842 2 -843 3 0 575 0 575 820 3 c451 1 830 0 843 -3
22 -5 22 -5 22 -229 l0 -223 25 -11 c13 -6 38 -35 54 -64 l31 -53 0 406 c0
379 -1 407 -18 422 -16 15 -61 17 -378 19 l-359 3 -5 63 c-7 90 -11 92 -196
92 l-153 0 -20 -26z" id="node1" class="node"></path>
<path style="position: relative;" d="M2421 2377 c-48 -17 -74 -56 -78 -119 -5 -63 9 -94 57 -126 49 -33
139 -28 177 11 35 34 44 126 18 176 -26 50 -113 79 -174 58z" id="node2" class="node"></path>
<path style="position: relative;" d="M2007 2052 c-27 -29 -20 -66 29 -164 62 -124 90 -164 125 -178 47
-20 74 -6 109 55 17 30 36 55 41 55 12 0 12 -133 -3 -586 -12 -405 -10 -436
33 -449 27 -9 57 3 71 28 7 13 16 121 22 269 10 213 14 250 29 265 23 23 49 7
58 -33 4 -16 7 -129 8 -252 1 -218 6 -255 35 -274 20 -14 56 -8 76 12 18 18
20 33 20 133 0 61 -5 204 -10 317 -15 323 -16 558 -2 572 27 27 81 -66 131
-228 33 -106 65 -152 97 -140 28 11 15 200 -20 290 -48 124 -134 229 -225 275
-33 17 -59 21 -138 21 -133 0 -168 -18 -238 -120 -28 -41 -58 -76 -67 -78 -10
-2 -28 26 -59 94 -38 84 -75 134 -99 134 -4 0 -14 -8 -23 -18z" id="node3" class="node"></path>
<path style="position: relative;" d="M1263 843 c-79 -71 -67 -212 22 -249 44 -18 106 -18 149 0 67 28 88
165 35 223 -55 59 -154 71 -206 26z" id="node4" class="node"></path>
<path style="position: relative;" d="M1911 834 c-44 -32 -66 -133 -42 -197 34 -90 212 -103 255 -19 37 74
27 151 -28 202 -36 32 -147 41 -185 14z" id="node5" class="node"></path>
<path style="position: relative;" d="M611 808 c-48 -26 -66 -64 -66 -138 0 -54 4 -73 20 -90 28 -32 76
-50 130 -50 87 0 122 37 132 135 5 56 -16 101 -61 130 -33 22 -124 30 -155 13z" id="node6" class="node"></path>
<path style="position: relative;" d="M283 620 c-39 -23 -61 -64 -70 -125 -8 -65 18 -119 74 -152 37 -22
53 -25 105 -21 54 4 64 8 93 40 25 27 34 47 39 89 4 30 4 64 0 74 -35 95 -160
145 -241 95z" id="node7" class="node"></path>
<path style="position: relative;" d="M956 621 c-41 -27 -66 -71 -73 -129 -15 -127 125 -214 246 -152 68
34 94 152 48 221 -45 69 -160 100 -221 60z" id="node8" class="node"></path>
<path style="position: relative;" d="M1595 630 c-53 -21 -85 -83 -85 -164 0 -63 21 -96 81 -126 87 -45
191 -14 217 65 20 59 11 139 -19 171 -50 54 -137 78 -194 54z" id="node9" class="node"></path>
<path style="position: relative;" d="M2232 620 c-49 -30 -72 -75 -72 -143 0 -44 5 -67 21 -88 29 -41 89
-69 146 -69 93 0 143 58 143 166 0 45 -5 59 -30 88 -58 65 -144 85 -208 46z" id="node10" class="node"></path>
<path style="position: relative;" d="M250 260 c-33 -12 -71 -36 -95 -60 -39 -39 -40 -42 -43 -120 l-4 -80
261 0 261 0 0 53 c0 76 -16 121 -54 155 -79 69 -217 91 -326 52z" id="node11" class="node"></path>
<path style="position: relative;" d="M928 263 c-64 -21 -125 -75 -138 -121 -5 -20 -10 -61 -10 -89 l0 -53
260 0 260 0 0 60 c0 71 -16 114 -57 153 -65 61 -213 84 -315 50z" id="node12" class="node"></path>
<path style="position: relative;" d="M1548 261 c-106 -43 -147 -100 -148 -203 l0 -58 260 0 260 0 0 73 c0
90 -24 130 -102 172 -71 37 -198 45 -270 16z" id="node13" class="node"></path>
<path style="position: relative;" d="M2198 261 c-108 -43 -138 -84 -138 -191 l0 -70 255 0 255 0 0 73 c0
93 -24 133 -107 174 -76 37 -193 43 -265 14z" id="node14" class="node"></path>
</g>
<g transform="translate(0.000000,300.000000) scale(0.100000,-0.100000)" fill="#9F9F9F" stroke="none">

</g>
</svg>